<svg xmlns="http://www.w3.org/2000/svg" xmlns:xlink="http://www.w3.org/1999/xlink" xmlns:inkscape="http://www.inkscape.org/namespaces/inkscape" version="1.1" width="221.6102" height="139.3309" viewBox="0 0 221.6102 139.3309">
<g inkscape:groupmode="layer" inkscape:label="Layer 1">
<path transform="matrix(1,0,0,-1,1,138.3309)" d="M128.5566 45.4252C130.4991 50.9131 130.5726 57.6717 130.3965 65.662 130.3245 66.585 130.2591 67.8889 130.3824 68.8122 130.7446 74.052 133.0197 78.7663 136.5143 82.2609 140.3342 86.0808 145.6121 88.4441 151.4409 88.4441 157.2698 88.4441 162.5479 86.0808 166.3679 82.2609 170.1879 78.4409 172.5511 73.1631 172.5511 67.3342 172.5511 61.6827 170.3132 56.5254 166.6587 52.719 163.0154 48.9243 157.9544 46.4848 152.2947 46.2543L151.8523 46.2433C151.2454 46.2317 151.861 46.224 151.4409 46.224 145.9029 46.224 140.8626 48.3574 137.0971 51.8465 134.1454 41.0973 129.6522 33.1458 116.7111 28.3371 116.1964 28.1458 115.6847 28.1653 115.1861 28.3955 114.6875 28.6257 114.3405 29.0021 114.152 29.518L114.1019 29.6558C113.7444 30.6346 114.1994 31.7171 115.1484 32.1471 122.7345 35.5847 126.6253 39.9699 128.5566 45.4252ZM160.9089 58.25C158.6392 55.8856 155.4931 54.366 151.9824 54.2228L151.7117 54.212C151.3743 54.2055 152.0844 54.2239 151.4409 54.2239 147.8205 54.2239 144.5426 55.6914 142.1705 58.0635 139.7985 60.4355 138.331 63.7135 138.331 67.3342 138.331 70.9546 139.7985 74.2326 142.1705 76.6046 144.5426 78.9766 147.8205 80.4441 151.4409 80.4441 155.0614 80.4441 158.3396 78.9766 160.7117 76.6046 163.0837 74.2326 164.5512 70.9546 164.5512 67.3342 164.5512 63.8073 163.1679 60.6027 160.9089 58.25" fill="#4d8186" fill-rule="evenodd"/>
<path transform="matrix(1,0,0,-1,1,138.3309)" d="M4 80.5371C1.7909 80.5371 0 82.328 0 84.5371 0 86.7461 1.7909 88.537 4 88.537H29.8749C32.0839 88.537 33.8749 86.7461 33.8749 84.5371 33.8749 82.328 32.0839 80.5371 29.8749 80.5371H20.9231L20.9302 57.6363C20.9843 56.3712 21.5354 55.2368 22.3909 54.4175 23.2308 53.6131 24.3822 53.1204 25.6561 53.1204 27.8651 53.1204 29.6561 51.3295 29.6561 49.1204 29.6561 46.9114 27.8651 45.1205 25.6561 45.1205 22.261 45.1205 19.1568 46.4675 16.8599 48.6677 14.5777 50.8535 13.1077 53.8923 12.9614 57.2919 12.9566 57.4064 12.9566 57.5198 12.9614 57.6323L12.9543 80.5371Z" fill="#4d8186"/>
<path transform="matrix(1,0,0,-1,1,138.3309)" d="M109.938 71.5297C112.1471 71.5297 113.938 69.7388 113.938 67.5298 113.938 65.3207 112.1471 63.5298 109.938 63.5298 106.4716 63.5298 103.3325 64.9355 101.0605 67.2075 98.7885 69.4794 97.3831 72.6182 97.3831 76.0847 97.3831 79.5509 98.7885 82.69 101.0605 84.9623 103.3328 87.2342 106.4718 88.6397 109.938 88.6397 112.7693 88.6397 115.4293 87.6847 117.5681 86.0437 119.7116 84.3987 121.3265 82.0706 122.061 79.3301 122.6305 77.1987 121.3642 75.009 119.2329 74.4395 117.1015 73.87 114.9117 75.1363 114.3422 77.2676 114.0746 78.2663 113.4933 79.1096 112.7242 79.6997 111.9501 80.2936 110.9789 80.6397 109.938 80.6397 108.6797 80.6397 107.5408 80.1298 106.7168 79.306 105.893 78.482 105.3831 77.343 105.3831 76.0847 105.3831 74.8267 105.893 73.6875 106.7168 72.8637 107.5408 72.0397 108.68 71.5297 109.938 71.5297" fill="#4d8186"/>
<path transform="matrix(1,0,0,-1,1,138.3309)" d="M109.938 71.5297C112.1471 71.5297 113.938 69.7388 113.938 67.5298 113.938 65.3207 112.1471 63.5298 109.938 63.5298 108.6797 63.5298 107.5408 63.0198 106.7168 62.1961 105.893 61.3721 105.3831 60.2331 105.3831 58.9748 105.3831 57.7168 105.893 56.5775 106.7168 55.7538 107.5408 54.9298 108.68 54.4198 109.938 54.4198 110.9789 54.4198 111.9501 54.7659 112.7242 55.3598 113.4933 55.95 114.0746 56.7933 114.3422 57.7919 114.9117 59.9233 117.1015 61.1895 119.2329 60.62 121.3642 60.0506 122.6305 57.8608 122.061 55.7294 121.3265 52.9889 119.7116 50.6608 117.5681 49.0158 115.4293 47.3749 112.7693 46.4199 109.938 46.4199 106.4716 46.4199 103.3325 47.8256 101.0605 50.0975 98.7885 52.3695 97.3831 55.5083 97.3831 58.9748 97.3831 62.441 98.7885 65.5801 101.0605 67.8523 103.3328 70.1243 106.4718 71.5297 109.938 71.5297" fill="#4d8186"/>
<path transform="matrix(1,0,0,-1,1,138.3309)" d="M193.1196 53.1204C195.3286 53.1204 197.1196 51.3295 197.1196 49.1204 197.1196 46.9114 195.3286 45.1205 193.1196 45.1205 189.7245 45.1205 186.6206 46.4672 184.3234 48.6677 182.0412 50.8535 180.5712 53.8923 180.4249 57.2919 180.4201 57.4064 180.4201 57.5198 180.4249 57.6323L180.4167 84.5371C180.4167 86.7373 182.2008 88.5214 184.4011 88.5214 186.6013 88.5214 188.3854 86.7373 188.3854 84.5371L188.3937 57.6363C188.4478 56.3712 188.9989 55.2368 189.8544 54.4175 190.694 53.6131 191.8457 53.1204 193.1196 53.1204" fill="#4d8186"/>
<path transform="matrix(1,0,0,-1,1,138.3309)" d="M109.2285 105.4928C110.1977 103.089 112.1241 101.1631 114.5276 100.1937 114.8128 100.0791 114.9897 99.8167 114.9897 99.5094 114.99 99.2021 114.8128 98.9396 114.5276 98.8251 112.1241 97.8557 110.1983 95.9298 109.2288 93.526 109.1143 93.2411 108.8518 93.064 108.5445 93.064 108.2373 93.064 107.9748 93.2411 107.8603 93.526 106.8908 95.9295 104.9649 97.8557 102.5612 98.8251 102.2763 98.9402 102.0991 99.2024 102.0991 99.5094 102.0991 99.8167 102.2763 100.0791 102.5612 100.1937 104.9649 101.1631 106.8917 103.089 107.8605 105.4928 107.9753 105.7774 108.2375 105.9551 108.5445 105.9551 108.8518 105.9551 109.1137 105.7776 109.2285 105.4928" fill="#4d8186" fill-rule="evenodd"/>
<path transform="matrix(1,0,0,-1,1,138.3309)" d="M156.558 58.8203C155.8463 58.3999 154.9278 58.6358 154.5075 59.3476 154.0871 60.0593 154.3229 60.9778 155.0347 61.3981 156.3925 62.1986 157.3985 63.3977 157.9603 64.7722 158.5233 66.1493 158.6463 67.7112 158.2384 69.234 158.0162 70.0634 157.6491 70.8341 157.1621 71.5105 156.6737 72.1882 156.0597 72.7815 155.3448 73.2546 154.6557 73.7107 154.4666 74.6396 154.9227 75.3287 155.3788 76.0178 156.3077 76.2069 156.9969 75.7508 158.0094 75.0807 158.885 74.2326 159.588 73.2566 160.2918 72.2786 160.8185 71.1788 161.1326 70.0072 161.7114 67.8464 161.5326 65.6203 160.7258 63.6474 159.9185 61.672 158.4853 59.9567 156.558 58.8203" fill="#4d8186"/>
<path transform="matrix(1,0,0,-1,1,138.3309)" d="M64.0321 58.8203C63.3203 58.3999 62.4019 58.6358 61.9815 59.3476 61.5611 60.0593 61.797 60.9778 62.5088 61.3981 63.8668 62.1989 64.8726 63.3977 65.4344 64.7722 65.9974 66.1493 66.1204 67.7112 65.7125 69.234 65.4902 70.0634 65.1231 70.8341 64.6362 71.5105 64.1477 72.1882 63.5338 72.7815 62.8189 73.2546 62.1298 73.7107 61.9407 74.6396 62.3968 75.3287 62.8529 76.0178 63.7818 76.2069 64.4709 75.7508 65.4834 75.0807 66.3591 74.2326 67.062 73.2566 67.7659 72.2786 68.2926 71.1788 68.6066 70.0072 69.1855 67.8464 69.0066 65.6201 68.1999 63.6474 67.3926 61.672 65.9594 59.9567 64.0321 58.8203" fill="#4d8186"/>
<path transform="matrix(1,0,0,-1,1,138.3309)" d="M80.8665 90.3121C75.3786 88.3695 68.62 88.2961 60.6297 88.4721 59.7932 88.5373 58.3858 88.6071 57.4795 88.4863 52.2397 88.124 47.5254 85.8489 44.0308 82.3544 40.2109 78.5344 37.8476 73.2566 37.8476 67.4277 37.8476 61.5988 40.2109 56.3207 44.0308 52.5008 47.8508 48.6808 53.1286 46.3175 58.9575 46.3175 64.6089 46.3175 69.7663 48.5555 73.5727 52.2099 77.3674 55.8533 79.8069 60.9143 80.0374 66.5739L80.0484 67.0164C80.06 67.6233 80.0677 67.0076 80.0677 67.4277 80.0677 72.9658 77.9343 78.006 74.4452 81.7716 85.1944 84.7233 93.1459 89.2165 97.9546 102.1575 98.1459 102.6723 98.1264 103.1839 97.8962 103.6826 97.666 104.1812 97.2896 104.5281 96.7737 104.7166L96.6359 104.7668C95.6571 105.1243 94.5746 104.6693 94.1445 103.7203 90.707 96.1342 86.3218 92.2433 80.8665 90.3121ZM68.0417 57.9597C70.4061 60.2294 71.9257 63.3756 72.0689 66.8863L72.0797 67.157C72.0862 67.4943 72.0677 66.7843 72.0677 67.4277 72.0677 71.0481 70.6003 74.3261 68.2282 76.6981 65.8562 79.0702 62.5782 80.5377 58.9575 80.5377 55.3371 80.5377 52.0591 79.0702 49.6871 76.6981 47.3151 74.3261 45.8476 71.0481 45.8476 67.4277 45.8476 63.8073 47.3151 60.529 49.6871 58.157 52.0591 55.785 55.3371 54.3175 58.9575 54.3175 62.4844 54.3175 65.6889 55.7008 68.0417 57.9597" fill="#4d8186" fill-rule="evenodd"/>
<path transform="matrix(1,0,0,-1,1,138.3309)" d="M149.4794 129.3523C149.3918 130.5009 148.5907 131.5412 147.3001 131.8944 148.2338 132.4346 148.7954 133.3619 148.7188 134.367 148.6165 135.7132 147.4067 137.1376 145.3606 136.9817L141.412 136.6815C141.107 136.6583 140.5701 136.5993 140.6191 135.953 140.6696 135.2891 141.1914 135.3107 141.5324 135.3365L141.8556 135.3611 142.4852 127.0871 142.162 127.0627C141.821 127.0366 141.302 126.9791 141.3524 126.3149 141.4015 125.6689 141.9415 125.6919 142.2465 125.7151L146.554 126.0428C148.6182 126.1998 149.5885 127.9165 149.4794 129.3523ZM147.2485 134.2372C147.299 133.573 146.859 132.4746 145.2617 132.353L143.6105 132.2274 143.3633 135.4759 145.4094 135.6316C146.7734 135.7353 147.2074 134.7755 147.2485 134.2372ZM148.0062 129.2581C148.0663 128.4684 147.4926 127.4681 146.0747 127.3603L143.9926 127.2019 143.7129 130.8813 145.9922 131.0545C147.3744 131.1596 147.9501 129.994 148.0062 129.2581ZM158.9502 126.5176C159.0007 127.1815 158.4995 127.2379 158.1588 127.264L156.0229 127.4264 156.689 136.1852C156.7383 136.8312 156.6292 137.0563 155.9112 137.1107L153.1471 137.321C152.8061 137.3471 152.2843 137.3683 152.2338 136.7045 152.1848 136.0585 152.7216 135.9992 153.0266 135.9763L155.1626 135.8135 154.5333 127.5398 152.4152 127.7008C152.0742 127.7269 151.5523 127.7481 151.5019 127.0843 151.4529 126.4382 151.9897 126.3793 152.2947 126.356L158.0564 125.9175C158.3793 125.8931 158.9012 125.8716 158.9502 126.5176ZM169.0404 127.7807C169.5543 130.0085 168.2892 132.1291 166.307 132.5866 164.3253 133.0441 162.2582 131.6925 161.744 129.4648 161.2259 127.2197 162.5389 125.1434 164.4854 124.6941 166.4325 124.2448 168.5262 125.5535 169.0404 127.7807ZM167.6132 128.2397C167.2651 126.7313 165.9818 125.7344 164.789 126.0096 163.5965 126.2849 162.8802 127.7433 163.2283 129.2516 163.5684 130.7251 164.8636 131.5344 166.0037 131.2713 167.161 131.0043 167.953 129.7131 167.6132 128.2397ZM177.7252 122.8397C178.4251 124.6147 176.3833 125.8648 175.8634 126.1664L174.291 127.1344C173.8953 127.4066 173.5157 127.7691 173.6674 128.154 173.8193 128.5393 174.4971 128.7366 175.9204 128.1756 177.143 127.6937 177.2189 127.1993 177.1172 126.7943 177.0021 126.4527 176.9202 126.0981 177.5398 125.8537 178.2264 125.583 178.4015 125.9785 178.5535 126.3637L179.0022 127.5024C179.1278 127.8204 179.2791 128.3026 178.6927 128.5336 178.3244 128.6787 178.1311 128.5809 178.0112 128.4735 177.4202 129.0353 176.7504 129.2992 176.4488 129.4183 173.5855 130.5468 172.6492 129.2519 172.4117 128.649 171.7911 127.0749 173.4174 126.0471 174.8991 125.1921 175.5899 124.7845 176.7665 124.0886 176.4694 123.3349 176.2449 122.7654 175.4807 122.5446 174.1073 123.0857 173.3876 123.3694 172.5993 123.8737 172.6829 125.2142 172.7277 125.6224 172.7232 125.8563 172.2042 126.0609 171.5173 126.3317 171.3424 125.9362 171.184 125.5343L170.5635 123.9602C170.4379 123.6421 170.2633 123.1498 170.8659 122.9122 171.0334 122.8462 171.3183 122.7339 171.7537 123.2011 172.3363 122.3714 173.1436 122.0145 173.5957 121.8362 176.2917 120.7735 177.402 122.0193 177.7252 122.8397ZM186.2495 117.9978C187.2006 119.6518 185.3631 121.1862 184.8929 121.5604L183.4787 122.7475C183.1269 123.0744 182.8043 123.4885 183.0104 123.8474 183.217 124.2062 183.9163 124.3026 185.2424 123.5398 186.3816 122.8847 186.3848 122.3847 186.2249 121.9986 186.061 121.6774 185.9284 121.3387 186.5058 121.0065 187.1453 120.6388 187.3766 121.0042 187.583 121.3631L188.1933 122.4241C188.3636 122.7206 188.5836 123.1753 188.0374 123.4896 187.6941 123.6869 187.4886 123.6183 187.3545 123.5296 186.8516 124.1717 186.2274 124.5305 185.9465 124.6921 183.2786 126.2265 182.1634 125.0821 181.8405 124.5203 180.9969 123.0537 182.4557 121.7993 183.7967 120.7372 184.4206 120.2335 185.4831 119.3729 185.0794 118.6707 184.7741 118.1401 183.9858 118.0332 182.7062 118.7691 182.0353 119.1549 181.3292 119.7686 181.6075 121.0827 181.7113 121.4799 181.741 121.712 181.2574 121.9901 180.6174 122.358 180.3866 121.9927 180.1712 121.6182L179.3276 120.1513C179.1573 119.8551 178.9123 119.3936 179.4742 119.0704 179.6301 118.9806 179.8957 118.8281 180.3946 119.2266 180.8498 118.3209 181.5962 117.8498 182.0177 117.6075 184.5298 116.1629 185.8099 117.2333 186.2495 117.9978ZM195.0058 112.7401C196.5025 114.4681 196.3769 116.9345 194.8394 118.2662 193.3021 119.598 190.8431 119.3709 189.3461 117.6432 187.8375 115.9016 188.0257 113.4522 189.5357 112.1443 191.046 110.8358 193.5091 111.0124 195.0058 112.7401ZM193.9592 113.8136C192.9455 112.6437 191.3451 112.3631 190.4199 113.1647 189.4946 113.9661 189.5443 115.59 190.5579 116.7602 191.5481 117.9028 193.0714 118.012 193.9555 117.246 194.8535 116.4682 194.9491 114.9565 193.9592 113.8136ZM199.8493 102.4509C200.298 102.8398 200.1424 103.1573 199.7181 103.6471L202.82 106.3344C203.1058 106.5815 204.6739 107.9878 203.5777 109.2532 203.2478 109.6342 202.6502 110.0214 201.8597 110.0271 202.0535 110.6002 201.9396 111.1442 201.5742 111.566 201.2323 111.9606 200.7782 112.21 200.2623 112.3106 200.4789 112.6653 200.2686 112.9354 200.0565 113.1803L199.6911 113.6021C199.4788 113.847 199.0981 114.2317 198.6219 113.8192 198.1729 113.4303 198.3291 113.1129 198.7534 112.623L194.8623 109.2523C194.438 109.7419 194.146 109.9414 193.697 109.5528 193.2072 109.1285 193.559 108.6948 193.7594 108.4635L194.7611 107.3069C194.9734 107.062 195.3051 106.7068 195.7949 107.1312 196.2439 107.5198 196.1235 107.7968 195.6991 108.2863L197.9711 110.2547C199.0593 111.1975 200.0588 111.2533 200.5067 110.7366 200.7306 110.4778 200.6189 110.1671 199.857 109.5069L196.8778 106.926C196.6164 107.1995 196.3247 107.3993 195.8893 107.0223 195.3995 106.598 195.7158 106.2051 195.9163 105.9738L196.7766 104.9808C196.9886 104.7359 197.3205 104.3802 197.8104 104.8045 198.2594 105.1934 198.127 105.4837 197.7026 105.9735L199.9746 107.9416C201.0628 108.8847 202.0742 108.9269 202.5102 108.4235 202.7458 108.1517 202.6225 107.854 201.8605 107.1941L198.8813 104.6132C198.6318 104.8734 198.3402 105.0729 197.9048 104.6957 197.4149 104.2713 197.7313 103.8787 197.9198 103.661L198.7801 102.6677C198.9921 102.4231 199.3595 102.0268 199.8493 102.4509ZM210.3695 86.8762C211.4413 87.2989 212.1987 88.3712 212.1554 89.7086 212.9474 88.9758 213.9987 88.7131 214.9364 89.0827 216.1928 89.5779 217.1965 91.154 216.4442 93.0631L214.9917 96.747C214.8797 97.0316 214.6649 97.5274 214.062 97.2899 213.4423 97.0455 213.6169 96.5534 213.7425 96.2351L213.8613 95.9338 206.1414 92.8908 206.0226 93.1921C205.8973 93.5104 205.689 93.9892 205.0693 93.7451 204.4667 93.5073 204.6478 92.9985 204.7601 92.7139L206.3441 88.6949C207.1035 86.7688 209.0299 86.3484 210.3695 86.8762ZM214.3786 90.4493C213.7589 90.2049 212.5794 90.3013 211.9921 91.7918L211.3849 93.3324 214.4157 94.5269 215.1683 92.6181C215.6698 91.3453 214.8812 90.6474 214.3786 90.4493ZM209.8449 88.2561C209.1081 87.9656 207.9831 88.2187 207.4618 89.5414L206.6958 91.4839 210.1289 92.8372 210.9671 90.7106C211.4753 89.4209 210.5317 88.5268 209.8449 88.2561ZM210.3491 76.9589C210.998 77.1086 210.9022 77.6038 210.8254 77.9369L210.3435 80.0243 218.9027 81.9998C219.534 82.1455 219.7162 82.3167 219.5541 83.0183L218.9307 85.7191C218.8539 86.0525 218.7187 86.557 218.0699 86.4074 217.4386 86.2614 217.5423 85.7313 217.6112 85.4331L218.0928 83.346 210.0076 81.4799 209.5299 83.5495C209.4531 83.8828 209.3179 84.3871 208.669 84.2374 208.0378 84.0917 208.1415 83.5614 208.2104 83.2635L209.5098 77.6333C209.5826 77.3175 209.7176 76.8132 210.3491 76.9589ZM212.5239 67.5904C213.1339 67.6366 213.1044 68.2665 213.0948 68.3921 213.0647 68.7866 212.9805 68.9431 212.5735 69.0744 211.7205 69.3706 211.5102 70.2391 211.4759 70.6878 211.3843 71.8903 212.0647 73.1514 213.3683 73.5755L213.7518 68.5324C213.7861 68.0834 213.8162 67.6885 214.6056 67.7486 216.6698 67.9056 218.3564 69.2254 218.1776 71.5768 218.0137 73.7306 216.0675 75.3517 213.8417 75.1822 211.6341 75.0144 209.9426 73.0443 210.1201 70.7111 210.3058 68.2702 212.057 67.5547 212.5239 67.5904ZM215.0269 69.3332 214.6978 73.6588C215.8503 73.4576 216.7469 72.5873 216.8317 71.4745 216.8946 70.6487 216.5734 69.6495 215.0269 69.3332ZM210.3627 57.1201C211.0266 57.0694 211.083 57.5705 211.1091 57.9118L211.1567 58.54 215.0694 58.242C216.936 58.1 217.7983 58.9915 217.91 60.4633 217.9865 61.4684 217.6282 62.2176 217.3201 62.6743 217.77 62.6581 217.995 62.7676 218.0483 63.4671L218.1453 64.7416C218.1711 65.0826 218.1736 65.5877 217.5273 65.6371 216.8813 65.6861 216.8223 65.1492 216.8005 64.8618L216.7515 64.2158 211.6182 64.6064 211.6661 65.2346C211.6919 65.5756 211.712 66.0796 211.0482 66.13 210.4021 66.1791 210.3429 65.6422 210.3211 65.3547L210.1096 62.5731C210.0864 62.2678 210.0634 61.7281 210.7097 61.6788 211.3736 61.6283 211.4311 62.1476 211.4572 62.4883L211.5048 63.1168 214.4662 62.8914C216.0998 62.7673 216.635 61.4991 216.572 60.6733 216.508 59.8297 216.0442 59.6665 215.0929 59.7387L211.2701 60.0296 211.3109 60.5682C211.337 60.9089 211.3586 61.431 210.6947 61.4815 210.0484 61.5308 209.988 60.9755 209.9648 60.6705L209.7612 57.996C209.7394 57.7089 209.7167 57.1691 210.3627 57.1201ZM207.7965 47.8335C208.4199 47.6566 208.5849 48.1711 208.6682 48.4654L208.8454 49.0887 217.2951 46.6892C217.9185 46.5123 218.1609 46.5746 218.3576 47.2671L218.7065 48.4965C218.8001 48.8256 218.9251 49.3325 218.2844 49.5145 217.6611 49.6913 217.4961 49.1769 217.4128 48.8826L217.2356 48.2593 214.9846 48.8985C215.5354 49.322 215.9252 49.9039 216.112 50.5619 216.6528 52.4665 215.4898 54.6307 213.2561 55.2648 211.0915 55.8794 208.9423 54.7682 208.4162 52.9155 208.1752 52.0671 208.3348 51.3108 208.6302 50.703 208.1353 50.8059 207.9153 50.7563 207.7234 50.0808L207.3745 48.8514C207.2809 48.5223 207.1559 48.0155 207.7965 47.8335ZM211.3707 49.9433C210.4875 50.1942 209.3562 51.2827 209.7003 52.4948 210.0249 53.6377 211.4331 54.248 212.853 53.8449 214.3939 53.4073 215.1181 52.0041 214.7984 50.8785 214.5132 49.8742 213.4312 49.3583 212.5655 49.604ZM205.882 39.2397C207.6205 38.4537 208.9692 40.4317 209.2958 40.936L210.3398 42.459C210.6312 42.8409 211.0119 43.2023 211.3892 43.0319 211.7665 42.8613 211.93 42.1747 211.2999 40.7806 210.7585 39.5833 210.261 39.5317 209.8616 39.653 209.526 39.7848 209.1759 39.884 208.9015 39.2771 208.5973 38.6048 208.9837 38.4103 209.361 38.2397L210.4764 37.7354C210.7877 37.5945 211.2619 37.4199 211.5215 37.9939 211.6845 38.3547 211.5964 38.5526 211.4949 38.6776 212.0851 39.2406 212.3816 39.8965 212.5151 40.1919 213.783 42.9965 212.5355 43.9948 211.945 44.2619 210.4033 44.9589 209.2969 43.3851 208.3703 41.9471 207.9292 41.2773 207.1763 40.136 206.4379 40.4697 205.8803 40.722 205.6972 41.4964 206.3052 42.8411 206.6241 43.5464 207.1664 44.3089 208.5012 44.1595 208.9066 44.0949 209.1404 44.0878 209.3703 44.5963 209.6742 45.2687 209.2881 45.4632 208.8944 45.6409L207.3526 46.338C207.0411 46.4788 206.5581 46.6778 206.2911 46.0874 206.2168 45.9232 206.0906 45.6443 206.536 45.1865 205.6788 44.6454 205.2825 43.8565 205.0824 43.4137 203.8887 40.773 205.0784 39.6031 205.882 39.2397ZM197.2534 19.8009C197.7355 19.3411 198.0961 19.6934 198.3319 19.9409L199.4499 21.1136C199.6611 21.335 199.9953 21.7375 199.5392 22.1723 199.1353 22.5573 198.8337 22.3974 198.597 22.1751 198.0882 23.2328 197.4986 24.4661 197.1581 25.3874 197.7211 25.2737 198.7835 25.0316 199.4394 24.7544 199.5766 22.2114 200.3451 21.4787 200.6317 21.2054 201.4656 20.4106 202.7798 19.7544 203.6991 20.7184 204.3323 21.3829 204.4534 22.7098 203.1117 23.989 202.5646 24.5106 201.774 25.0903 200.7564 25.5878 200.7349 25.9566 200.6294 27.1763 200.6535 27.2279 200.5758 27.8246 200.3054 28.48 199.6931 29.0636 198.6772 30.0325 197.104 30.3134 196.1229 29.2844 195.5018 28.633 195.3831 27.7515 195.4539 26.9127 194.9315 26.9385 193.8747 26.9263 193.2041 26.2227 192.3471 25.3239 192.8869 24.0378 193.5383 23.4167 194.0726 22.9076 194.4944 23.3762 194.4944 23.3762 194.8918 23.7929 194.538 24.2045 194.434 24.304 194.0145 24.8031 194.0199 25.1218 194.1812 25.291 194.5664 25.6949 195.395 25.651 195.7394 25.6212 195.9211 24.9506 196.2575 24.1821 196.446 23.7538L197.6655 21.1983 197.3551 20.8723C197.1315 20.6379 196.7842 20.2479 197.2534 19.8009ZM201.526 22.1434C201.2006 22.4538 200.9959 23.0219 200.8933 24.1143 201.5909 23.6979 202.1635 23.1772 202.2548 23.0902 202.9062 22.4691 202.9706 21.9104 202.7344 21.6629 202.3991 21.3111 201.6303 22.0442 201.526 22.1434ZM196.8194 26.78C196.6561 27.7563 196.9634 28.2093 197.1249 28.3788 197.6094 28.8867 198.4266 28.2569 198.726 27.9711 199.2603 27.4618 199.3178 27.1834 199.4054 26.1797 198.4436 26.475 197.4966 26.6817 196.8194 26.78ZM178.2451 11.3933C178.8194 10.3946 179.9909 9.8019 181.3073 10.04 180.6982 9.1497 180.5916 8.0711 181.0942 7.1972 181.7674 6.027 183.473 5.2637 185.2517 6.2867L188.6845 8.261C188.9498 8.4135 189.4088 8.6984 189.0856 9.2602 188.7537 9.8374 188.2922 9.593 187.9957 9.4224L187.7148 9.2608 183.5779 16.454 183.8588 16.6153C184.1553 16.7859 184.5986 17.062 184.2667 17.6391 183.9438 18.2007 183.4665 17.9473 183.2014 17.7948L179.4566 15.641C177.662 14.6089 177.5271 12.6417 178.2451 11.3933ZM182.3647 7.9486C182.0327 8.526 181.9559 9.707 183.3443 10.5055L184.7801 11.3312 186.4043 8.5071 184.6253 7.484C183.4396 6.802 182.634 7.4806 182.3647 7.9486ZM179.5334 12.1139C179.1386 12.8004 179.2247 13.9501 180.4572 14.6591L182.2671 15.7 184.1068 12.5014 182.1254 11.3618C180.9238 10.6707 179.9014 11.4738 179.5334 12.1139ZM168.4687 10.351C168.6821 9.7203 169.1994 9.8762 169.5064 9.9802L171.1091 10.5225 172.9151 5.186C173.1229 4.5723 173.3111 4.4079 173.9931 4.6386L176.3461 5.4349C176.6531 5.5389 177.1529 5.7461 176.9511 6.3425 176.7376 6.9735 176.2203 6.8173 175.9133 6.7136L174.1742 6.1251 172.5242 11.0013 174.3996 11.6359C174.7236 11.7456 175.2123 11.9302 174.9988 12.5609 174.7911 13.1749 174.2737 13.019 173.9667 12.9149L169.0736 11.2589C168.7666 11.1552 168.2609 10.965 168.4687 10.351ZM173.7816 2.4007C173.9605 1.872 174.5308 1.5902 175.0765 1.7748 175.6219 1.9593 175.9042 2.5299 175.7254 3.0586 175.5405 3.6043 174.9699 3.886 174.4245 3.7012 173.8789 3.5167 173.5968 2.9463 173.7816 2.4007ZM159.5568 6.7068C159.6231 6.3349 159.6991 5.9094 160.4435 6.0423 161.1346 6.1659 161.0762 6.5942 161.013 6.9486 160.8599 7.9087 161.7177 8.2261 162.0896 8.2925 163.277 8.5045 163.4224 7.6895 163.4888 7.3174L164.2005 3.3304 161.5073 2.8497C161.1882 2.7927 160.6774 2.6833 160.7913 2.0452 160.9084 1.3895 161.4076 1.4604 161.7446 1.5208L164.4378 2.0015 164.6657 .7257C164.7351 .3359 164.8321-.104 165.5408 .0224 166.2676 .1522 166.2092 .5805 166.1363 .9882L165.9084 2.264 167.273 2.5078C167.6095 2.5679 168.0993 2.6918 167.9856 3.3299 167.8717 3.9677 167.3722 3.8968 167.0533 3.8398L165.6711 3.5929 164.9435 7.6686C164.6303 9.4229 163.2699 9.8748 161.9232 9.6344 160.5764 9.394 159.2657 8.337 159.5568 6.7068ZM149.4692 6.4789C149.4848 5.8671 150.1152 5.8649 150.241 5.868 150.6368 5.8779 150.7972 5.9542 150.9489 6.3541 151.2879 7.1909 152.166 7.357 152.6159 7.3684 153.8215 7.399 155.0466 6.6557 155.4041 5.3325L150.3479 5.2047C149.8978 5.1934 149.502 5.1831 149.5222 4.3914 149.5743 2.3221 150.8071 .5709 153.1644 .6304 155.3236 .6849 157.0411 2.5469 156.9847 4.7781 156.9288 6.9917 155.0469 8.7806 152.7077 8.7214 150.2606 8.6596 149.4575 6.9466 149.4692 6.4789ZM151.0832 3.8908 155.4199 4.0005C155.1606 2.8593 154.2458 2.0081 153.1304 1.9797 152.3024 1.9587 151.3208 2.3301 151.0832 3.8908ZM139.8144 7.2459C139.574 5.3532 141.8607 4.6451 142.439 4.481L144.2015 3.9305C144.652 3.7644 145.1095 3.5065 145.057 3.096 145.0049 2.685 144.3969 2.327 142.8792 2.5197 141.5755 2.6853 141.3799 3.1456 141.3788 3.5634 141.406 3.9229 141.3981 4.2866 140.7373 4.3707 140.0054 4.4637 139.9329 4.0374 139.8807 3.6266L139.7262 2.4123C139.6831 2.0733 139.6553 1.5687 140.2807 1.4893 140.6733 1.4394 140.8365 1.5817 140.9261 1.7155 141.6376 1.3167 142.3519 1.226 142.6734 1.1852 145.7266 .7971 146.3145 2.283 146.3961 2.9256 146.6096 4.6043 144.7801 5.1996 143.1334 5.6628 142.3636 5.8876 141.0514 6.2719 141.1534 7.0758 141.2308 7.6827 141.9171 8.0855 143.3812 7.8993 144.1491 7.8018 145.0372 7.5076 145.2866 6.1877 145.3439 5.7813 145.406 5.5556 145.9593 5.4853 146.6918 5.3923 146.7638 5.8184 146.8182 6.247L147.0317 7.9257C147.0747 8.2647 147.1226 8.7849 146.48 8.8665 146.3014 8.8892 145.9976 8.928 145.6909 8.3679 144.9218 9.0283 144.0516 9.1752 143.5691 9.2364 140.6945 9.6018 139.9258 8.1207 139.8144 7.2459Z" fill="#231f20"/>
</g>
</svg>
