<?xml version="1.0" standalone="no"?>
<!DOCTYPE svg PUBLIC "-//W3C//DTD SVG 20010904//EN"
 "http://www.w3.org/TR/2001/REC-SVG-20010904/DTD/svg10.dtd">
<svg version="1.0" xmlns="http://www.w3.org/2000/svg"
 width="253.000000pt" height="253.000000pt" viewBox="0 0 253.000000 253.000000"
 preserveAspectRatio="xMidYMid meet">

<g transform="translate(0.000000,253.000000) scale(0.100000,-0.100000)"
fill="#000000" stroke="none">
<path d="M1044 2486 c-242 -46 -477 -170 -650 -343 -238 -238 -364 -541 -364
-878 0 -576 377 -1056 946 -1206 80 -21 110 -24 294 -23 191 0 212 2 302 27
443 122 773 452 895 895 25 91 27 110 27 307 0 197 -2 216 -27 307 -122 443
-456 776 -895 894 -84 23 -121 27 -277 30 -123 2 -203 -1 -251 -10z m412 -51
c258 -45 463 -151 645 -334 467 -466 467 -1206 0 -1672 -456 -457 -1181 -467
-1650 -24 -332 314 -453 788 -311 1227 133 416 488 723 926 802 106 19 282 19
390 1z"/>
<path d="M901 2315 c-19 -6 -37 -17 -39 -25 -3 -8 1 -11 9 -8 56 21 53 23 82
-65 15 -46 27 -86 27 -90 0 -4 -11 -12 -25 -17 -14 -5 -25 -15 -25 -21 0 -6 6
-9 13 -6 6 2 38 13 70 23 31 10 57 23 57 31 0 9 -6 10 -27 2 -14 -5 -30 -6
-34 -2 -4 4 -21 48 -38 97 -17 49 -32 90 -34 91 -1 1 -17 -3 -36 -10z"/>
<path d="M1149 2281 c-17 -18 -29 -40 -29 -56 0 -36 50 -85 87 -85 33 0 73 25
73 46 0 20 -13 18 -33 -6 -20 -24 -45 -25 -75 -4 -34 24 -27 32 36 40 31 3 60
8 64 10 4 3 2 18 -4 34 -19 57 -74 66 -119 21z m86 -11 c22 -25 21 -26 -37
-34 -39 -6 -48 -4 -48 8 0 16 37 46 56 46 6 0 19 -9 29 -20z"/>
<path d="M1350 2301 c0 -7 6 -14 14 -17 11 -4 11 -15 2 -62 -7 -32 -17 -57
-24 -57 -30 0 -13 -20 21 -26 40 -6 58 4 32 19 -13 7 -14 16 -6 52 10 44 23
60 53 60 25 0 29 -14 22 -70 -5 -40 -10 -50 -25 -50 -26 0 -24 -16 4 -24 34
-9 67 -7 67 4 0 6 -6 10 -14 10 -12 0 -14 13 -9 69 6 77 12 71 -72 85 -16 2
-38 8 -47 11 -11 4 -18 3 -18 -4z"/>
<path d="M1710 2272 c0 -4 5 -13 11 -19 8 -8 8 -17 -1 -33 -11 -20 -13 -20
-29 -6 -18 16 -57 21 -86 10 -19 -8 -45 -55 -45 -82 0 -28 38 -72 61 -72 11 0
27 -7 35 -15 17 -17 44 -20 44 -6 0 5 -5 11 -12 13 -7 3 4 37 32 98 41 89 42
94 25 107 -21 15 -35 17 -35 5z m-32 -74 c18 -18 14 -52 -9 -82 -25 -32 -53
-33 -73 -4 -21 29 -20 40 5 72 22 27 57 34 77 14z"/>
<path d="M680 2208 c-33 -16 -58 -34 -55 -38 3 -5 11 -7 18 -5 17 6 99 -143
91 -167 -8 -25 4 -23 66 15 46 26 56 37 58 63 3 35 -18 64 -49 64 -15 0 -18 5
-13 24 7 30 -9 62 -36 69 -12 3 -45 -7 -80 -25z m94 -20 c9 -14 6 -23 -16 -44
-30 -30 -47 -28 -67 10 -13 24 -13 28 5 41 24 19 64 15 78 -7z m50 -74 c18
-17 19 -24 10 -49 -6 -15 -62 -51 -69 -43 -5 6 -35 67 -35 72 0 7 52 35 67 36
6 0 19 -7 27 -16z"/>
<path d="M1810 2105 c-11 -13 -7 -24 23 -67 25 -36 33 -56 26 -64 -25 -30 -83
21 -73 63 7 28 -7 30 -29 5 -18 -19 -23 -47 -8 -38 5 3 16 -5 24 -18 9 -12 29
-29 46 -36 28 -11 34 -10 51 5 27 24 25 38 -10 78 -47 54 -35 88 18 51 12 -8
22 -26 22 -40 0 -13 3 -24 8 -24 8 0 36 40 30 44 -2 1 -18 14 -36 29 -37 30
-73 35 -92 12z"/>
<path d="M1437 1983 c-4 -3 -7 -46 -7 -94 0 -127 -24 -185 -110 -269 -38 -37
-107 -89 -160 -120 -187 -109 -256 -210 -248 -361 6 -95 39 -169 104 -229 63
-58 123 -82 214 -88 96 -5 168 20 240 85 75 67 103 128 108 235 4 81 2 92 -25
150 -36 75 -89 130 -158 165 -27 14 -51 27 -53 28 -2 1 22 35 52 75 79 105
101 170 101 296 0 71 -4 106 -14 117 -14 18 -33 22 -44 10z m-99 -632 c77 -40
122 -111 122 -193 0 -66 -26 -124 -73 -165 -130 -114 -336 -34 -354 139 -7 68
9 118 50 165 62 70 176 94 255 54z"/>
<path d="M1232 1293 c2 -10 17 -20 38 -24 20 -4 47 -21 64 -40 26 -30 28 -37
23 -91 -6 -62 6 -84 30 -53 20 28 16 114 -7 153 -25 41 -76 72 -118 72 -26 0
-33 -4 -30 -17z"/>
<path d="M407 1863 c-4 -3 -7 -17 -7 -30 0 -12 -6 -23 -12 -23 -7 0 -24 -19
-37 -42 -20 -35 -21 -40 -6 -34 20 7 118 -50 110 -64 -13 -21 15 -17 28 4 17
26 13 38 -9 29 -13 -5 -71 30 -86 52 -13 17 -9 35 7 35 22 0 92 -48 100 -68 6
-15 8 -15 21 2 18 25 18 40 0 33 -21 -8 -96 49 -96 73 0 11 4 20 9 20 18 0
100 -55 101 -67 0 -18 10 -16 26 5 19 24 17 34 -4 28 -10 -3 -36 7 -62 24 -44
29 -70 37 -83 23z"/>
<path d="M2170 1776 c-25 -17 -44 -22 -68 -18 -58 8 -101 -62 -53 -88 12 -6
21 -23 23 -43 2 -27 8 -33 31 -35 15 -2 27 1 27 7 0 6 -9 11 -21 11 -15 0 -20
5 -17 23 3 19 10 22 56 25 30 2 59 -2 66 -7 19 -16 26 -2 14 25 -11 24 -38 34
-38 14 0 -5 -18 -10 -40 -10 -40 0 -40 0 -25 24 11 17 22 22 40 18 57 -11 112
30 84 64 -17 20 -39 17 -79 -10z m63 -3 c12 -11 -14 -33 -39 -33 -28 0 -31 15
-6 29 20 12 36 14 45 4z m-113 -38 c0 -15 -34 -55 -46 -55 -20 0 -29 27 -14
45 12 14 60 22 60 10z"/>
<path d="M308 1635 c-35 -19 -46 -60 -27 -94 40 -71 140 -62 155 15 12 62 -69
112 -128 79z m77 -21 c24 -9 37 -51 25 -75 -17 -30 -85 -26 -106 6 -34 52 16
93 81 69z"/>
<path d="M317 1403 c-8 -10 -20 -37 -26 -60 -13 -46 -35 -57 -44 -22 -7 25 8
69 23 69 5 0 10 5 10 10 0 6 -11 10 -24 10 -20 0 -24 -6 -30 -39 -9 -58 7 -93
41 -89 21 2 29 12 42 48 21 60 29 70 46 63 26 -9 19 -70 -10 -89 -34 -22 -31
-34 8 -34 l33 0 2 59 c3 80 -32 117 -71 74z"/>
<path d="M2144 1295 c-7 -47 0 -91 18 -112 15 -18 68 -16 89 3 17 15 19 15 34
0 21 -21 38 -20 66 3 18 14 23 31 27 78 3 38 0 63 -7 67 -6 4 -11 0 -11 -8 0
-13 -16 -16 -95 -16 -78 0 -95 3 -95 15 0 34 -19 12 -26 -30z m106 -44 c0 -45
-19 -66 -54 -57 -26 6 -41 44 -31 77 5 14 16 19 46 19 39 0 39 0 39 -39z m104
31 c2 -4 1 -23 -3 -42 -5 -28 -12 -36 -34 -38 -21 -3 -29 2 -36 21 -16 42 -3
67 35 67 18 0 35 -3 38 -8z"/>
<path d="M313 1188 c-4 -7 -10 -35 -13 -63 -4 -36 -10 -51 -22 -53 -24 -5 -35
54 -14 77 23 25 20 33 -11 29 -26 -3 -28 -6 -25 -43 9 -102 92 -117 92 -16 0
59 28 82 50 42 16 -30 12 -60 -10 -73 -29 -19 -24 -28 15 -28 19 0 35 5 35 10
0 6 -3 10 -7 10 -5 0 -8 20 -8 43 0 24 -6 51 -14 60 -16 20 -56 22 -68 5z"/>
<path d="M2117 1046 c-20 -75 -20 -76 -8 -76 5 0 12 11 15 25 7 29 8 29 72 10
27 -8 54 -15 61 -15 10 0 33 49 33 71 0 20 -20 7 -26 -16 -7 -28 -16 -30 -79
-13 -44 12 -45 13 -39 45 11 59 -11 35 -29 -31z"/>
<path d="M2303 988 c2 -7 10 -13 17 -13 7 0 15 6 18 13 2 7 -5 12 -18 12 -13
0 -20 -5 -17 -12z"/>
<path d="M319 951 c-33 -33 -36 -56 -13 -89 24 -35 59 -44 99 -28 58 25 72 80
30 121 -34 35 -78 33 -116 -4z m101 -11 c25 -25 25 -31 -1 -64 -24 -30 -63
-34 -91 -9 -24 22 -23 39 7 68 29 30 58 32 85 5z"/>
<path d="M2040 851 c-15 -29 -12 -71 5 -78 9 -3 19 -2 23 2 4 4 1 10 -5 12
-16 6 -17 49 -2 59 13 7 109 -35 109 -48 0 -5 -7 -22 -15 -38 -9 -17 -11 -30
-6 -30 6 0 17 14 26 30 13 25 20 29 40 24 27 -7 35 10 10 20 -11 4 -14 13 -9
31 7 29 -3 33 -22 8 -12 -17 -15 -17 -56 5 -53 27 -84 28 -98 3z"/>
<path d="M500 796 c0 -8 5 -18 10 -21 22 -14 6 -34 -70 -89 -44 -31 -80 -60
-80 -64 1 -14 49 -66 55 -60 4 3 -1 18 -11 32 -9 15 -15 28 -13 29 136 101
151 109 165 90 7 -10 14 -21 14 -25 0 -12 20 -9 20 2 0 12 -77 120 -85 120 -3
0 -5 -6 -5 -14z"/>
<path d="M1939 695 c-27 -15 -50 -59 -42 -82 8 -24 23 -13 23 17 0 19 7 33 19
40 22 11 71 14 71 4 0 -4 -18 -27 -40 -51 -23 -24 -38 -47 -35 -52 3 -5 18
-14 34 -19 36 -13 71 3 89 40 24 50 -24 120 -81 118 -7 -1 -24 -7 -38 -15z
m101 -74 c0 -32 -16 -51 -45 -51 -35 0 -36 10 -2 50 35 42 47 43 47 1z"/>
<path d="M600 612 c-16 -13 -23 -29 -22 -50 1 -27 -3 -32 -23 -32 -26 0 -45
-25 -45 -58 0 -12 21 -38 46 -61 49 -43 70 -52 60 -25 -4 11 14 40 51 85 46
54 62 67 78 62 l20 -6 -20 23 c-27 31 -95 80 -110 80 -7 0 -23 -8 -35 -18z
m84 -34 l25 -23 -29 -34 c-29 -34 -30 -34 -51 -15 -32 29 -41 51 -29 74 14 27
53 26 84 -2z m-70 -87 c17 -18 17 -21 1 -45 -21 -32 -35 -33 -64 -2 -30 32
-21 66 18 66 15 0 36 -9 45 -19z"/>
<path d="M1810 570 c0 -5 -5 -10 -11 -10 -6 0 -24 -9 -40 -21 -21 -15 -29 -29
-29 -50 0 -46 23 -48 133 -12 27 9 21 -22 -9 -46 -19 -15 -31 -18 -44 -11 -23
12 -32 2 -17 -21 16 -26 26 -24 70 12 62 51 43 108 -27 79 -17 -7 -43 -15 -58
-17 -23 -4 -28 -2 -28 16 0 31 45 57 75 43 30 -14 39 -2 19 26 -16 23 -34 29
-34 12z"/>
<path d="M1216 441 c-15 -28 -64 -75 -102 -97 -17 -10 -17 -12 11 -27 34 -17
77 -61 94 -94 16 -31 22 -29 49 17 12 22 40 50 62 62 22 13 40 28 40 33 0 6
-18 20 -40 33 -22 12 -50 40 -62 62 -13 22 -26 40 -30 40 -4 0 -14 -13 -22
-29z"/>
</g>
</svg>
