<?xml version="1.0" standalone="no"?>
<!DOCTYPE svg PUBLIC "-//W3C//DTD SVG 20010904//EN"
 "http://www.w3.org/TR/2001/REC-SVG-20010904/DTD/svg10.dtd">
<svg version="1.0" xmlns="http://www.w3.org/2000/svg"
 width="317.000000pt" height="195.000000pt" viewBox="0 0 317.000000 195.000000"
 preserveAspectRatio="xMidYMid meet">

<g transform="translate(0.000000,195.000000) scale(0.100000,-0.100000)"
fill="#000000" stroke="none">
<path d="M0 1922 c0 -8 143 -94 217 -131 73 -36 165 -51 406 -65 273 -16 288
-20 349 -105 23 -31 67 -83 98 -116 47 -50 74 -95 159 -268 84 -171 101 -210
91 -223 -10 -12 -7 -24 19 -65 17 -29 30 -54 27 -56 -11 -12 -74 9 -94 30 -11
12 -32 48 -47 79 -15 32 -44 73 -64 91 -36 32 -38 38 -44 111 -4 42 -14 91
-23 109 -26 50 -176 278 -181 274 -2 -3 35 -63 82 -135 47 -72 90 -143 95
-157 5 -14 13 -91 16 -169 l7 -143 -23 -6 c-21 -5 -23 -10 -17 -61 3 -31 2
-56 -1 -56 -26 0 -52 35 -61 83 -55 273 -67 313 -114 380 -25 34 -59 90 -76
125 -17 34 -33 62 -36 62 -6 0 3 -22 37 -93 42 -87 54 -147 40 -205 -6 -26
-14 -80 -18 -120 -5 -63 -9 -74 -28 -82 -26 -10 -42 -28 -48 -55 -4 -17 -8
-14 -20 15 -10 22 -19 84 -23 165 -6 97 -12 140 -26 167 -11 21 -23 59 -27 85
l-7 48 -5 -45 -5 -45 -57 57 c-56 54 -74 65 -43 24 8 -11 15 -23 15 -27 0 -3
-33 -17 -72 -30 -53 -17 -96 -24 -158 -24 -75 0 -93 4 -153 32 -37 18 -92 49
-122 69 -31 20 -58 34 -61 31 -8 -8 139 -96 197 -118 28 -11 76 -32 107 -48
132 -66 271 -85 354 -48 37 16 38 15 43 -6 2 -12 4 -40 4 -62 -2 -93 18 -227
38 -253 50 -67 88 -25 104 116 6 48 15 111 20 140 10 50 12 53 37 50 25 -3 28
-9 43 -78 24 -106 38 -179 44 -221 11 -74 76 -124 122 -93 22 14 24 21 19 62
-3 26 -8 81 -12 122 l-6 75 37 -35 c21 -19 50 -63 66 -97 31 -70 72 -103 127
-103 25 0 35 6 44 24 9 21 6 33 -21 78 -30 50 -121 235 -121 245 0 3 13 -6 28
-19 51 -43 169 -109 206 -115 25 -4 44 0 61 11 41 27 29 54 -45 106 -36 24
-121 99 -190 165 -82 78 -147 132 -188 153 -35 19 -98 67 -142 107 -53 51 -90
77 -117 83 -21 6 -132 15 -248 22 -116 6 -234 15 -264 20 -61 10 -169 59 -278
125 -40 25 -73 41 -73 37z m1264 -519 c53 -47 96 -88 96 -92 0 -3 23 -24 50
-46 28 -22 50 -47 50 -56 0 -31 12 -50 42 -65 16 -9 37 -13 46 -9 13 4 11 0
-5 -16 -27 -27 -66 -21 -141 22 -45 26 -52 33 -46 52 6 20 5 20 -10 8 -15 -12
-22 -11 -59 15 -31 22 -57 56 -103 139 -33 61 -82 134 -108 163 l-48 52 70
-40 c39 -23 114 -79 166 -127z m-637 -43 c23 -14 47 -35 53 -48 9 -21 7 -25
-27 -39 -74 -32 -229 -12 -323 42 -24 14 -24 14 20 15 54 0 161 25 198 45 15
8 29 13 32 12 3 -1 24 -13 47 -27z m293 -92 c0 -5 -9 -8 -20 -8 -13 0 -20 7
-20 19 0 11 -3 28 -6 38 -4 11 4 6 20 -12 14 -16 25 -33 26 -37z m595 -80 c33
-22 40 -38 19 -45 -15 -5 -64 36 -64 53 0 19 4 18 45 -8z m-160 -194 c9 -15
21 -40 26 -56 7 -26 6 -28 -7 -17 -21 17 -55 85 -47 93 9 9 9 9 28 -20z m-530
-21 c-8 -36 -32 -60 -44 -48 -14 14 14 75 35 75 13 0 15 -6 9 -27z m296 -30
c13 -36 8 -78 -11 -78 -9 0 -19 15 -24 36 -15 62 14 97 35 42z"/>
<path d="M2160 1078 c-40 -61 -82 -134 -92 -161 -10 -26 -34 -79 -53 -117 -39
-77 -42 -106 -20 -150 27 -53 -8 -25 -101 82 -139 158 -231 222 -250 173 -10
-26 4 -58 51 -115 25 -30 69 -93 97 -140 71 -115 118 -164 200 -207 78 -41
109 -68 155 -135 42 -62 120 -99 296 -137 153 -34 396 -110 470 -148 27 -13
51 -22 54 -19 9 9 -115 61 -234 99 -122 39 -181 56 -335 92 -125 28 -196 61
-229 105 -65 85 -97 113 -171 152 -87 45 -115 74 -197 206 -28 45 -74 110
-101 144 -51 64 -61 94 -35 104 25 10 64 -21 205 -164 74 -75 157 -150 184
-167 27 -16 62 -38 77 -48 23 -15 33 -16 72 -6 l44 12 142 -102 c78 -57 144
-101 147 -99 5 5 -214 166 -356 262 -72 49 -74 51 -45 54 55 7 72 44 39 90
-15 22 -15 22 13 11 34 -12 147 -78 227 -131 65 -43 128 -63 232 -73 111 -10
164 -25 244 -67 72 -38 194 -144 205 -178 6 -18 75 -65 75 -50 0 5 -13 16 -30
25 -16 9 -30 20 -30 25 0 21 -118 134 -179 170 -90 54 -138 69 -266 85 -60 8
-131 20 -156 28 -63 19 -119 65 -119 97 0 41 28 121 63 180 49 82 58 113 41
139 -9 12 -22 21 -30 21 -9 0 -14 10 -14 28 0 37 -28 63 -56 52 -11 -5 -44
-37 -72 -72 -27 -34 -67 -79 -87 -98 l-36 -35 14 30 c7 17 28 59 45 95 39 79
42 132 10 154 -12 9 -25 16 -28 16 -4 0 -39 -50 -80 -112z m85 53 c-6 -21 -42
-47 -51 -38 -3 2 5 21 17 41 23 39 47 37 34 -3z m35 -5 c0 -17 -18 -69 -40
-114 l-40 -83 -25 17 c-14 9 -25 12 -25 6 0 -6 9 -14 20 -17 25 -8 25 -16 -2
-92 -23 -63 -23 -63 -62 -63 -45 0 -76 -22 -76 -55 0 -26 71 -95 149 -145 l54
-34 -29 -13 c-16 -6 -37 -9 -47 -7 -33 10 -127 86 -147 119 -27 44 -25 76 10
139 17 29 42 82 55 116 37 94 95 180 123 180 30 0 62 34 62 66 0 14 4 23 10
19 6 -3 10 -21 10 -39z m120 -71 c0 -28 -4 -36 -24 -41 -44 -11 -50 6 -15 42
18 19 34 34 36 34 2 0 3 -16 3 -35z m34 19 c13 -35 3 -57 -61 -128 -55 -60
-71 -72 -82 -63 -12 10 -12 9 -1 -9 11 -17 8 -28 -15 -75 -15 -29 -29 -55 -30
-57 -5 -6 -85 31 -85 39 0 28 35 84 93 150 61 71 67 75 100 71 29 -3 38 0 52
22 10 15 14 33 10 46 -7 23 10 28 19 4z m56 -107 c0 -11 -17 -49 -37 -84 -34
-57 -40 -63 -63 -58 -25 6 -25 6 -4 -9 20 -15 21 -15 3 -83 -11 -42 -22 -67
-30 -65 -14 4 -99 61 -99 68 0 20 85 165 111 189 33 31 31 21 -7 -30 -32 -43
-95 -157 -90 -162 2 -3 12 10 21 29 23 45 123 198 148 225 23 26 47 16 47 -20z
m-347 -217 c53 -42 42 -90 -20 -90 -61 0 -109 74 -65 99 27 16 57 13 85 -9z"/>
</g>
</svg>
