<?xml version="1.0" standalone="no"?>
<!DOCTYPE svg PUBLIC "-//W3C//DTD SVG 20010904//EN"
 "http://www.w3.org/TR/2001/REC-SVG-20010904/DTD/svg10.dtd">
<svg version="1.0" xmlns="http://www.w3.org/2000/svg"
 width="274.000000pt" height="232.000000pt" viewBox="0 0 274.000000 232.000000"
 preserveAspectRatio="xMidYMid meet">

<g transform="translate(0.000000,232.000000) scale(0.100000,-0.100000)"
fill="#000000" stroke="none">
<path d="M1293 2270 c-38 -23 -65 -70 -66 -118 l-1 -34 -415 -204 -414 -204
-111 0 c-127 0 -161 -13 -189 -73 -15 -32 -17 -104 -17 -766 0 -806 -2 -782
62 -821 32 -20 48 -20 870 -20 834 0 837 0 843 20 16 52 45 50 -834 50 -723 0
-819 2 -839 16 l-22 15 0 738 c0 675 1 740 17 752 13 12 150 15 762 19 l746 5
0 30 0 30 -550 5 -550 5 338 168 337 167 31 -22 c43 -32 116 -32 159 1 l33 23
336 -168 336 -169 -187 -3 c-178 -2 -187 -3 -193 -23 -16 -48 -8 -49 379 -49
311 0 365 -2 384 -16 l22 -15 0 -738 c0 -674 -1 -740 -17 -752 -12 -11 -81
-15 -307 -19 l-291 -5 0 -30 0 -30 300 -3 c286 -2 302 -1 333 18 64 39 62 15
62 821 0 662 -2 734 -17 766 -27 59 -63 73 -178 73 l-100 0 -411 202 -412 203
-6 46 c-11 80 -67 129 -148 129 -25 0 -56 -8 -75 -20z m121 -71 c50 -40 21
-119 -44 -119 -35 0 -70 34 -70 67 0 29 42 73 68 73 11 0 31 -9 46 -21z"/>
<path d="M242 1548 c-9 -9 -12 -172 -12 -674 0 -364 3 -669 6 -678 6 -14 114
-16 1124 -16 1010 0 1118 2 1124 16 3 9 6 314 6 678 0 502 -3 665 -12 674 -9
9 -195 12 -775 12 -720 0 -763 -1 -772 -18 -6 -11 -6 -24 0 -35 9 -16 60 -17
744 -17 l735 0 0 -620 0 -620 -1050 0 -1050 0 0 620 0 620 261 2 c232 3 263 5
272 20 8 12 7 21 -2 32 -12 14 -51 16 -300 16 -210 0 -290 -3 -299 -12z"/>
<path d="M536 1124 c-14 -13 -16 -48 -16 -228 0 -151 3 -215 12 -224 19 -19
202 -16 219 4 9 11 10 20 2 32 -7 13 -28 18 -82 20 l-71 3 0 64 0 65 69 0 c75
0 98 13 86 50 -6 18 -15 20 -81 20 l-74 0 0 65 0 65 68 0 c70 0 92 10 92 42 0
28 -33 38 -124 38 -64 0 -88 -4 -100 -16z"/>
<path d="M822 1128 c-7 -7 -12 -21 -12 -32 0 -40 105 -396 122 -416 20 -23 65
-26 92 -7 11 8 38 85 77 222 57 205 58 210 40 228 -38 39 -53 12 -106 -182
-27 -100 -52 -181 -55 -181 -3 0 -27 81 -54 181 -35 128 -54 183 -67 189 -22
12 -23 12 -37 -2z"/>
<path d="M1226 1124 c-14 -13 -16 -48 -16 -228 0 -151 3 -215 12 -224 8 -8 47
-12 109 -12 104 0 127 10 114 50 -6 18 -15 20 -81 20 l-74 0 0 65 0 64 71 3
c75 3 99 17 86 52 -5 13 -21 16 -82 16 l-75 0 0 65 0 65 68 0 c70 0 92 10 92
42 0 28 -33 38 -124 38 -64 0 -88 -4 -100 -16z"/>
<path d="M1548 1129 c-16 -9 -18 -31 -18 -228 0 -231 3 -248 47 -239 16 3 18
18 21 141 1 75 6 137 10 137 4 -1 41 -62 83 -138 75 -136 94 -157 124 -132 12
10 15 52 15 231 0 212 -1 219 -21 230 -40 21 -48 -3 -50 -151 -1 -156 4 -157
-91 15 -59 107 -85 145 -97 145 -3 0 -14 -5 -23 -11z"/>
<path d="M1896 1121 c-14 -15 -15 -24 -6 -40 9 -17 20 -21 65 -21 l55 0 0
-181 c0 -184 6 -219 38 -219 38 0 42 18 42 212 l0 188 53 0 c55 0 77 12 77 42
0 30 -35 38 -173 38 -119 0 -136 -2 -151 -19z"/>
</g>
</svg>
