<svg xmlns="http://www.w3.org/2000/svg" xmlns:xlink="http://www.w3.org/1999/xlink" xmlns:inkscape="http://www.inkscape.org/namespaces/inkscape" version="1.1" width="138.1231" height="236.4575" viewBox="0 0 138.1231 236.4575">
<g inkscape:groupmode="layer" inkscape:label="Layer 1">
<path transform="matrix(1,0,0,-1,1,235.4575)" d="M96.5344 52.9673C95.2858 50.612 92.3635 49.7129 90.0082 50.9613 87.6532 52.2096 86.754 55.1322 88.0024 57.4872 90.3866 61.9773 91.1313 66.9677 90.3597 71.6933 89.587 76.4277 87.2932 80.9291 83.6056 84.4282 81.597 86.334 79.289 87.8343 76.8104 88.8729 74.3255 89.9133 71.6377 90.5097 68.8751 90.6058 66.2122 90.6985 64.1271 92.9336 64.2197 95.5964 64.3124 98.2596 66.5476 100.3448 69.2107 100.2521 73.1234 100.116 76.9601 99.2599 80.5374 97.7615 84.1201 96.2589 87.4216 94.1227 90.2594 91.4312 95.4918 86.4658 98.7517 80.0439 99.858 73.2611 100.9675 66.4699 99.9179 59.3391 96.5344 52.9673" fill="#4d8186"/>
<path transform="matrix(1,0,0,-1,1,235.4575)" d="M89.7477 167.9128C77.934 153.3243 59.4768 141.7334 37.2132 128.7527 35.6241 127.9414 34.0534 127.0636 32.5057 126.1148 31.915 125.7528 31.333 125.3832 30.7582 125.0062L30.3497 124.7698 30.1122 124.6241C29.556 124.2703 29.0285 123.889 28.529 123.4831 14.7339 113.6574 5.6072 99.4586 1.8887 83.9625-2.1759 67.0235 .2208 48.5314 10.0431 32.5066 19.8658 16.4818 35.257 5.9536 52.196 1.8887 69.135-2.1759 87.6271 .2208 103.6519 10.0431 119.1889 19.5667 129.5963 34.41 133.9027 50.8711 138.1955 67.282 136.374 85.3064 127.4703 101.2544L126.7549 102.4894C125.7642 104.1775 126.8226 102.498 126.1148 103.6528 116.7826 118.878 102.424 129.1399 86.4862 133.6124 111.064 159.8411 125.3526 185.593 116.7653 229.2738 116.424 231.0114 115.5081 232.3851 114.035 233.3682 112.5621 234.3509 110.9424 234.6707 109.2064 234.3195L108.7432 234.2251C105.45 233.5584 103.2403 230.4833 103.6573 227.1498 106.9903 200.5013 101.4911 182.4148 89.7477 167.9128ZM109.0077 57.3579C111.6831 67.5822 110.5594 78.7924 105.0369 88.6853L104.6103 89.4478C104.0598 90.3861 105.2056 88.403 104.1214 90.1718 98.0206 100.1251 88.4622 106.664 77.944 109.188 67.4254 111.712 55.9406 110.2226 45.9867 104.1214 36.0334 98.0206 29.4945 88.4622 26.9705 77.944 24.4466 67.4254 25.9359 55.9406 32.0366 45.9876 38.1376 36.0343 47.6963 29.4945 58.2146 26.9705 68.7331 24.4466 80.2179 25.9359 90.1709 32.0366 99.8671 37.98 106.346 47.183 109.0077 57.3579" fill="#4d8186" fill-rule="evenodd"/>
</g>
</svg>
